<svg xmlns="http://www.w3.org/2000/svg" width="1096" height="964" viewBox="0 0 696 564" version="1.1"><path d="" stroke="none" fill="#146464" fill-rule="evenodd"/><path d="M 267.357 158.313 C 268.119 160.135, 284.325 188.290, 303.371 220.880 C 322.417 253.470, 338 280.520, 338 280.991 C 338 281.463, 322.025 309.195, 302.500 342.619 C 282.975 376.044, 267 403.978, 267 404.695 C 267 405.757, 281.062 406, 342.418 406 C 383.898 406, 418.548 405.727, 419.418 405.393 C 420.288 405.059, 421 404.197, 421 403.476 C 421 402.756, 421.393 402.017, 421.872 401.833 C 422.924 401.432, 428.484 390.814, 428.200 389.750 C 428.090 389.337, 428.450 389, 429 389 C 429.550 389, 430 388.518, 430 387.929 C 430 387.339, 430.679 386.178, 431.509 385.348 C 432.339 384.518, 432.763 383.425, 432.450 382.919 C 432.138 382.414, 432.246 381.998, 432.691 381.997 C 433.136 381.995, 434.850 379.411, 436.500 376.255 C 438.150 373.099, 440.067 369.914, 440.759 369.178 C 441.452 368.441, 441.763 367.425, 441.450 366.919 C 441.138 366.414, 441.359 366, 441.941 366 C 442.523 366, 443 365.559, 443 365.019 C 443 364.480, 444.650 361.459, 446.667 358.307 C 448.683 355.154, 450.333 351.996, 450.333 351.287 C 450.333 350.579, 450.708 350, 451.167 350 C 451.625 350, 452 349.363, 452 348.583 C 452 347.804, 452.393 347.017, 452.872 346.833 C 453.924 346.432, 459.484 335.814, 459.200 334.750 C 459.090 334.337, 459.450 334, 460 334 C 460.550 334, 461 333.518, 461 332.929 C 461 332.339, 461.679 331.178, 462.509 330.348 C 463.339 329.518, 463.763 328.425, 463.450 327.919 C 463.138 327.414, 463.246 326.998, 463.691 326.997 C 464.136 326.995, 465.850 324.411, 467.500 321.255 C 469.150 318.099, 471.067 314.914, 471.759 314.178 C 472.452 313.441, 472.763 312.425, 472.450 311.919 C 472.138 311.414, 472.359 311, 472.941 311 C 473.523 311, 474 310.559, 474 310.019 C 474 309.480, 475.650 306.459, 477.667 303.307 C 479.683 300.154, 481.333 296.996, 481.333 296.287 C 481.333 295.579, 481.708 295, 482.167 295 C 482.625 295, 483 294.325, 483 293.500 C 483 292.675, 483.337 291.993, 483.750 291.984 C 484.163 291.974, 485.799 289.346, 487.386 286.143 L 490.271 280.319 487.434 275.410 C 485.873 272.709, 484.349 270.275, 484.048 270 C 483.747 269.725, 481.704 266.012, 479.508 261.750 C 477.313 257.488, 475.285 254, 475.003 254 C 474.720 254, 473.861 252.537, 473.095 250.750 C 472.328 248.963, 470.132 244.800, 468.213 241.500 C 466.295 238.200, 463.607 233.475, 462.242 231 C 455.667 219.088, 453.587 215.460, 453.066 215 C 452.755 214.725, 450.704 211.012, 448.508 206.750 C 446.313 202.488, 444.285 199, 444.003 199 C 443.720 199, 442.860 197.537, 442.093 195.750 C 441.326 193.963, 438.862 189.350, 436.617 185.500 C 434.372 181.650, 431.177 176.003, 429.518 172.952 C 427.858 169.900, 424.934 164.613, 423.019 161.202 L 419.538 155 342.756 155 L 265.973 155 267.357 158.313 M 260.200 182.200 C 259.540 182.860, 259 183.718, 259 184.107 C 259 184.496, 256.976 187.893, 254.502 191.657 C 252.028 195.421, 250.003 199.007, 250.002 199.628 C 250.001 200.248, 249.340 201.303, 248.532 201.973 C 246.945 203.291, 237.892 218.559, 238.065 219.627 C 238.123 219.984, 237.742 220.552, 237.218 220.888 C 235.737 221.840, 228.667 233.269, 228.667 234.713 C 228.667 235.421, 228.344 236, 227.950 236 C 227.027 236, 219.726 248.117, 219.692 249.706 C 219.678 250.369, 219.372 250.730, 219.011 250.507 C 218.312 250.075, 210.752 262.451, 211.015 263.597 C 211.101 263.971, 210.773 264.552, 210.287 264.888 C 208.955 265.811, 205.163 271.448, 204.810 273.031 C 204.639 273.796, 203.728 275.295, 202.785 276.362 C 201.841 277.430, 201.276 278.638, 201.529 279.047 C 201.782 279.456, 201.316 280.048, 200.494 280.364 C 198.652 281.071, 198.560 283.412, 200.306 285.179 C 201.024 285.905, 201.881 287.210, 202.209 288.079 C 202.537 288.947, 204.527 292.322, 206.630 295.579 C 208.733 298.835, 211.308 303.075, 212.352 305 C 213.396 306.925, 215.697 310.750, 217.465 313.500 C 219.233 316.250, 226.675 328.400, 234.001 340.500 C 241.328 352.600, 248.010 363.063, 248.852 363.750 C 249.694 364.438, 250.083 365, 249.717 365 C 248.615 365, 260.119 383.921, 261.250 383.968 C 261.663 383.986, 262 338.325, 262 282.500 C 262 226.675, 261.865 181, 261.700 181 C 261.535 181, 260.860 181.540, 260.200 182.200" stroke="none" fill="#1c6464" fill-rule="evenodd"/></svg>
