<?xml version="1.0" standalone="no"?>
<!DOCTYPE svg PUBLIC "-//W3C//DTD SVG 20010904//EN"
 "http://www.w3.org/TR/2001/REC-SVG-20010904/DTD/svg10.dtd">
<svg version="1.0" xmlns="http://www.w3.org/2000/svg"
 width="696.000000pt" height="564.000000pt" viewBox="0 0 696.000000 564.000000"
 preserveAspectRatio="xMidYMid meet">

<g transform="translate(0.000000,564.000000) scale(0.100000,-0.100000)"
fill="#000000" stroke="none">
<path d="M2670 4067 c0 -7 160 -287 355 -621 195 -334 355 -611 355 -616 0 -5
-160 -282 -355 -616 -195 -334 -355 -614 -355 -621 0 -11 142 -13 763 -13
l762 1 348 618 c191 340 347 624 347 631 0 7 -156 291 -347 631 l-348 618
-762 1 c-621 0 -763 -2 -763 -13z"/>
<path d="M2514 3654 c-50 -82 -185 -302 -299 -489 -114 -187 -209 -343 -212
-347 -2 -4 34 -67 79 -141 46 -74 182 -297 303 -495 l220 -361 3 495 c1 271 1
718 0 991 l-3 496 -91 -149z"/>
</g>
</svg>
